<?xml version="1.0" encoding="UTF-8" standalone="no"?>
<svg
   width="478.04575"
   height="104.446"
   viewBox="0 0 478.04575 104.446"
   version="1.1"
   id="svg827"
   sodipodi:docname="Aaron Smyth.svg"
   inkscape:version="1.1.1 (c3084ef, 2021-09-22)"
   xmlns:inkscape="http://www.inkscape.org/namespaces/inkscape"
   xmlns:sodipodi="http://sodipodi.sourceforge.net/DTD/sodipodi-0.dtd"
   xmlns="http://www.w3.org/2000/svg"
   xmlns:svg="http://www.w3.org/2000/svg">
  <defs
     id="defs831" />
  <sodipodi:namedview
     id="namedview829"
     pagecolor="#ffffff"
     bordercolor="#666666"
     borderopacity="1.0"
     inkscape:pageshadow="2"
     inkscape:pageopacity="0.0"
     inkscape:pagecheckerboard="0"
     showgrid="false"
     inkscape:zoom="2.4042912"
     inkscape:cx="136.21478"
     inkscape:cy="75.282064"
     inkscape:window-width="1792"
     inkscape:window-height="582"
     inkscape:window-x="0"
     inkscape:window-y="25"
     inkscape:window-maximized="0"
     inkscape:current-layer="svg827" />
  <g
     id="svgGroup"
     stroke-linecap="round"
     fill-rule="evenodd"
     font-size="12px"
     stroke="#fff"
     stroke-width=".7mm"
     fill="#fff"
     style="fill:#ffffff;stroke:#ffffff;stroke-width:0.7mm"
     transform="translate(1.3228346,1.3228346)">
    <path
       d="m 68.3,60.3 0.8,-6.4 q 0,-0.178 -0.053,-0.25 A 0.114,0.114 0 0 0 68.95,53.6 q -0.123,0 -0.413,0.268 A 4.794,4.794 0 0 0 68.4,54 q -1.3,1.4 -3.3,3.45 -2,2.05 -6.85,5.5 -3.843,2.734 -6.524,3.301 A 6.413,6.413 0 0 1 50.4,66.4 Q 49.9,66.3 49.15,66.05 A 1.994,1.994 0 0 1 48.706,65.827 Q 48.28,65.552 47.747,65.002 A 13.213,13.213 0 0 1 47.2,64.4 Q 46.214,63.249 46.038,61.287 A 9.963,9.963 0 0 1 46,60.4 5.318,5.318 0 0 1 46.279,58.825 q 0.77,-2.446 3.671,-6.375 A 72.822,72.822 0 0 1 55.802,45.514 88.04,88.04 0 0 1 59.4,41.95 Q 64.9,36.8 71.65,33 a 39.712,39.712 0 0 1 4.048,-2.004 q 2.116,-0.891 4.028,-1.34 A 16.096,16.096 0 0 1 83.4,29.2 a 2.755,2.755 0 0 1 1.884,0.904 q 0.635,0.659 1.116,1.796 1,-1 1.8,-1 0.8,0 1.9,1.2 0.524,0.087 1.049,0.519 A 3.723,3.723 0 0 1 91.3,32.75 1.793,1.793 0 0 1 91.838,33.706 2.712,2.712 0 0 1 91.9,34.3 q 0,0.887 -1.101,1.931 A 8.015,8.015 0 0 1 90.5,36.5 257.055,257.055 0 0 1 88.529,38.909 q -1.016,1.226 -2.155,2.577 A 441.252,441.252 0 0 1 85.6,42.4 q -2.579,3.039 -3.8,4.509 a 154.785,154.785 0 0 0 -0.2,0.241 q -1.2,1.45 -2.5,3.25 a 24.469,24.469 0 0 0 -1.028,1.562 q -0.93,1.551 -1.239,2.729 A 4.779,4.779 0 0 0 76.7,55.4 q 7.488,-3.597 21.282,-13.285 a 536.313,536.313 0 0 0 6.415,-4.586 19.884,19.884 0 0 1 -1.515,-1.159 q -1.636,-1.391 -2.328,-2.742 A 5.304,5.304 0 0 1 100.4,33.3 7.768,7.768 0 0 1 100.276,32.994 q -0.165,-0.436 -0.175,-0.665 A 0.658,0.658 0 0 1 100.1,32.3 a 4.746,4.746 0 0 1 0.086,-0.942 q 0.108,-0.531 0.351,-0.923 A 2.098,2.098 0 0 1 101.4,29.65 q 1.081,-0.541 3.27,-0.632 A 22.441,22.441 0 0 1 105.6,29 a 2.344,2.344 0 0 1 0.564,0.095 q 1.271,0.337 4.453,1.875 a 122.561,122.561 0 0 1 1.483,0.73 89.255,89.255 0 0 0 1.886,0.918 q 2.795,1.315 4.168,1.66 a 3.422,3.422 0 0 0 0.796,0.122 q 1.261,0 3.391,-0.643 A 30.089,30.089 0 0 0 123,33.55 q 2.374,-0.776 3.873,-0.844 a 6.171,6.171 0 0 1 0.277,-0.006 5.433,5.433 0 0 1 0.805,0.055 q 0.942,0.142 1.445,0.645 2.339,3.087 2.49,3.899 a 0.558,0.558 0 0 1 0.01,0.101 1.295,1.295 0 0 1 -0.463,1.003 1.94,1.94 0 0 1 -0.187,0.147 357.465,357.465 0 0 0 -0.342,0.237 q -0.785,0.545 -2.821,1.961 A 16491.405,16491.405 0 0 0 127.15,41.4 q -3.45,2.4 -6.75,4.9 -3.3,2.5 -6.2,5.6 -2.9,3.1 -2.9,5 a 0.249,0.249 0 0 0 0.148,0.238 q 0.124,0.062 0.352,0.062 a 8.667,8.667 0 0 0 2.925,-0.77 q 5.253,-2.114 17.294,-10.036 a 477.983,477.983 0 0 0 2.515,-1.67 61.623,61.623 0 0 1 1.266,-1.574 q 7.6,-9.15 19.1,-13.45 1,0 1.5,0.45 a 3.155,3.155 0 0 0 0.273,0.221 q 0.34,0.243 0.627,0.279 0.35,0.044 0.892,-0.295 a 4.133,4.133 0 0 0 0.158,-0.105 q 0.533,-0.369 1.37,-0.469 a 5.196,5.196 0 0 1 0.38,-0.031 1.797,1.797 0 0 1 0.082,-0.002 q 1.06,0 2.213,1.247 A 7.66,7.66 0 0 1 162.4,31 a 4.644,4.644 0 0 1 1.006,1.107 3.821,3.821 0 0 1 0.594,2.093 14.761,14.761 0 0 1 -0.599,3.957 q -1.026,3.668 -3.811,8.292 A 63.748,63.748 0 0 1 158.3,48.5 q 2.779,0 8.659,-3.348 A 67.22,67.22 0 0 0 167.05,45.1 Q 173,41.7 177.5,38.3 l 4.5,-3.5 a 2.624,2.624 0 0 1 0.102,0.082 189.624,189.624 0 0 1 0.358,-0.546 143.597,143.597 0 0 1 0.09,-0.136 19.305,19.305 0 0 1 0.667,-0.952 q 1.389,-1.848 2.283,-1.848 0.8,0 2.65,0.8 a 6.774,6.774 0 0 1 0.71,0.353 Q 190,33.215 190,34 q 0,0.7 -0.5,1.4 L 182,45.8 a 56.321,56.321 0 0 0 -0.305,0.378 q -0.988,1.238 -0.995,1.419 a 0.066,0.066 0 0 0 0,0.003 0.601,0.601 0 0 0 0.003,0.067 q 0.008,0.067 0.032,0.1 A 0.076,0.076 0 0 0 180.8,47.8 l 0.5,-0.3 q 7.975,-5.569 14.012,-10.192 A 222.112,222.112 0 0 0 200.4,33.3 q 1.221,-0.872 2.099,-0.984 A 1.988,1.988 0 0 1 202.75,32.3 q 0.95,0 1.25,0.2 l 2.8,0.8 q 1,0.5 1,1.3 0,0.8 -0.4,1.3 -1.774,1.961 -4.027,4.4 a 834.716,834.716 0 0 1 -0.323,0.35 606.925,606.925 0 0 0 -1.147,1.244 Q 200.3,43.638 199.4,44.65 a 939.841,939.841 0 0 0 -1.233,1.39 q -0.65,0.734 -1.371,1.551 A 1589.145,1589.145 0 0 0 196.7,47.7 q -1.5,1.7 -2.15,2.6 a 118.877,118.877 0 0 0 -0.642,0.899 q -0.335,0.473 -0.702,0.999 a 196.142,196.142 0 0 0 -0.106,0.152 15.289,15.289 0 0 0 -0.451,0.685 q -0.424,0.685 -0.631,1.219 A 4.334,4.334 0 0 0 192,54.3 q -0.6,2.3 -0.6,4 a 0.99,0.99 0 0 0 0.076,0.404 q 0.22,0.496 1.074,0.496 a 3.265,3.265 0 0 0 0.643,-0.077 q 1.222,-0.251 3.557,-1.323 2.073,-0.952 4.7,-2.596 a 78.84,78.84 0 0 0 2.6,-1.704 q 3.254,-2.22 8.149,-5.877 a 519.557,519.557 0 0 0 3.151,-2.373 522.192,522.192 0 0 1 5.041,-3.78 q 3.997,-2.957 7.309,-5.27 a 2.624,2.624 0 0 1 0.528,0.539 1.947,1.947 0 0 1 0.372,1.161 2.168,2.168 0 0 1 -0.465,1.334 3.238,3.238 0 0 1 -0.435,0.466 q -3.041,2.946 -7.616,7.291 A 1939.459,1939.459 0 0 1 219.6,47.45 q -3.752,3.56 -10.522,8.967 A 407.569,407.569 0 0 1 204.65,59.9 q -8.292,6.435 -12.465,7.561 A 6.158,6.158 0 0 1 190.6,67.7 q -6.141,0 -7.384,-5.216 A 12.905,12.905 0 0 1 182.9,59.5 q 0,-2.709 1.833,-5.648 A 18,18 0 0 1 185.3,53 l 4.3,-5.9 a 23.696,23.696 0 0 0 0.141,-0.213 q 0.373,-0.574 0.443,-0.768 A 0.223,0.223 0 0 0 190.2,46.05 0.041,0.041 0 0 0 190.194,46.027 Q 190.142,45.948 189.6,46.4 172.257,60.852 167.432,63.383 A 12.296,12.296 0 0 1 167.4,63.4 q -0.755,0.472 -1.865,0.498 A 5.6,5.6 0 0 1 165.4,63.9 5.26,5.26 0 0 1 164.134,63.762 q -1.652,-0.411 -1.962,-2.042 a 4.388,4.388 0 0 1 -0.072,-0.82 3.427,3.427 0 0 1 0.236,-1.28 3.247,3.247 0 0 1 0.264,-0.52 143.326,143.326 0 0 0 3.814,-3.627 q 3.392,-3.355 5.45,-5.953 A 31.236,31.236 0 0 0 173,48 q 1.744,-1.744 3.619,-4.49 a 56.287,56.287 0 0 0 0.685,-1.03 136.833,136.833 0 0 1 -2.14,1.782 q -10.371,8.404 -16.787,9.245 A 10.605,10.605 0 0 1 157,53.6 5.337,5.337 0 0 1 156.615,53.584 q -0.38,-0.028 -0.906,-0.104 A 25.09,25.09 0 0 1 155.2,53.4 q -8.153,9.451 -14.64,12.084 A 12.667,12.667 0 0 1 135.8,66.5 q -4.98,-0.738 -6.558,-3.346 A 4.785,4.785 0 0 1 129,62.7 q -0.68,-1.275 -0.782,-3.128 A 12.23,12.23 0 0 1 128.2,58.9 a 14.698,14.698 0 0 1 0.45,-3.389 194.079,194.079 0 0 1 -5.5,4.039 90.007,90.007 0 0 1 -4.092,2.747 q -6.09,3.83 -9.544,4.251 A 6.732,6.732 0 0 1 108.7,66.6 10.077,10.077 0 0 1 105.93,66.253 q -3.106,-0.89 -3.932,-4.061 A 10.313,10.313 0 0 1 101.7,59.6 11.714,11.714 0 0 1 103.075,54.154 15.423,15.423 0 0 1 104.25,52.25 Q 106.8,48.7 115,42.7 q -1.7,0 -4.6,-0.85 a 15.468,15.468 0 0 1 -1.3,-0.44 q -1.797,-0.705 -2.4,-1.61 -2.394,2.118 -8.011,6.865 A 1609.363,1609.363 0 0 1 97.7,47.5 5.413,5.413 0 0 1 96.866,47.994 1152.199,1152.199 0 0 1 95.85,48.85 336.553,336.553 0 0 1 92.699,51.466 q -1.66,1.363 -3.515,2.855 a 553.863,553.863 0 0 1 -0.534,0.429 219.086,219.086 0 0 1 -3.381,2.662 q -1.552,1.196 -2.952,2.222 A 120.493,120.493 0 0 1 81.4,60.3 q -7.7,5.5 -9.6,5.5 -1.9,0 -2.7,-1.2 A 3.468,3.468 0 0 1 68.704,63.747 Q 68.3,62.504 68.3,60.3 Z m 256.8,-7.3 4.3,-5.9 a 23.696,23.696 0 0 0 0.141,-0.213 q 0.373,-0.574 0.443,-0.768 A 0.223,0.223 0 0 0 330,46.05 0.041,0.041 0 0 0 329.994,46.027 Q 329.942,45.948 329.4,46.4 312.057,60.852 307.232,63.383 A 12.296,12.296 0 0 1 307.2,63.4 q -0.755,0.472 -1.865,0.498 A 5.6,5.6 0 0 1 305.2,63.9 5.26,5.26 0 0 1 303.934,63.762 q -1.652,-0.411 -1.962,-2.042 A 4.388,4.388 0 0 1 301.9,60.9 3.427,3.427 0 0 1 302.136,59.62 3.247,3.247 0 0 1 302.4,59.1 q 5.753,-8.331 8.849,-11.252 A 16.859,16.859 0 0 1 311.3,47.8 l 1.7,-1.7 q 0.134,-0.134 0.178,-0.267 A 0.419,0.419 0 0 0 313.2,45.7 q 0,-0.2 -0.2,-0.2 a 0.314,0.314 0 0 0 -0.118,0.027 q -0.169,0.07 -0.426,0.318 A 4.17,4.17 0 0 0 312.4,45.9 l -10.7,8.4 a 1368.651,1368.651 0 0 1 -2.193,1.718 q -7.213,5.638 -7.957,6.032 -0.661,0.35 -1.231,0.428 A 2.357,2.357 0 0 1 290,62.5 q -0.695,0 -2.177,-0.837 A 17,17 0 0 1 287.8,61.65 q -0.796,-0.451 -1.17,-0.972 A 1.65,1.65 0 0 1 286.3,59.7 q 0,-0.254 0.215,-0.651 A 3.862,3.862 0 0 1 286.6,58.9 q 8.077,-8.902 12.554,-15.222 a 69.425,69.425 0 0 0 1.746,-2.578 670.087,670.087 0 0 0 1.576,-2.501 q 0.719,-1.145 1.357,-2.175 a 388.722,388.722 0 0 0 0.417,-0.674 q 1.145,-1.856 1.916,-2.87 a 11.388,11.388 0 0 1 0.384,-0.48 3.587,3.587 0 0 1 0.546,-0.527 Q 307.713,31.4 308.4,31.4 a 2.139,2.139 0 0 1 0.785,0.162 q 0.616,0.242 1.31,0.849 a 8.08,8.08 0 0 1 0.155,0.139 5.187,5.187 0 0 1 0.632,0.687 q 0.618,0.819 0.618,1.663 a 4.043,4.043 0 0 1 -0.226,1.303 q -0.199,0.588 -0.574,1.197 a 98.342,98.342 0 0 1 -1.511,2.623 q -2.334,3.899 -3.789,5.277 a 1.607,1.607 0 0 0 -0.138,0.156 q -0.14,0.182 -0.159,0.345 A 0.432,0.432 0 0 0 305.5,45.85 q 0,0.227 0.165,0.248 A 0.28,0.28 0 0 0 305.7,46.1 L 306,46 319.4,36.7 a 104.685,104.685 0 0 1 1.768,-1.189 Q 324.688,33.2 325.5,33.2 a 3.569,3.569 0 0 1 1.021,0.157 q 0.545,0.163 1.129,0.493 1.15,0.65 1.15,1.45 a 2.57,2.57 0 0 1 0,0.012 q -0.004,0.794 -0.5,1.588 l -6.5,8.9 a 56.321,56.321 0 0 0 -0.305,0.378 q -0.988,1.238 -0.995,1.419 a 0.066,0.066 0 0 0 0,0.003 0.601,0.601 0 0 0 0.003,0.067 q 0.008,0.067 0.032,0.1 A 0.076,0.076 0 0 0 320.6,47.8 l 0.5,-0.3 q 12.5,-8.5 16.95,-11.8 4.45,-3.3 5.35,-4.2 1.221,-0.872 2.099,-0.984 A 1.988,1.988 0 0 1 345.75,30.5 q 0.95,0 1.25,0.2 l 2.2,1.7 q 1,0.5 1,1.3 a 2.615,2.615 0 0 1 -0.056,0.558 q -0.094,0.43 -0.344,0.742 -5.9,6.4 -9.45,10.2 -3.55,3.8 -5.15,5.6 -2.053,2.448 -2.859,4.148 A 6.741,6.741 0 0 0 332,55.8 q -0.559,0.979 -0.728,1.811 a 3.476,3.476 0 0 0 -0.072,0.689 0.99,0.99 0 0 0 0.076,0.404 q 0.22,0.496 1.074,0.496 a 3.265,3.265 0 0 0 0.643,-0.077 q 1.222,-0.251 3.557,-1.323 2.073,-0.952 4.7,-2.596 a 78.84,78.84 0 0 0 2.6,-1.704 q 3.254,-2.22 8.149,-5.877 a 519.557,519.557 0 0 0 3.151,-2.373 522.192,522.192 0 0 1 5.041,-3.78 383.624,383.624 0 0 1 2.646,-1.942 54.332,54.332 0 0 1 2.534,-2.801 q 4.04,-4.127 6.429,-4.127 0.22,0 0.494,0.108 a 2.536,2.536 0 0 1 0.206,0.092 10.072,10.072 0 0 1 0.987,0.296 q 0.963,0.35 1.415,0.809 A 1.252,1.252 0 0 1 375.3,34.8 q 0,0.334 -0.112,0.557 a 0.741,0.741 0 0 1 -0.138,0.193 q -0.213,0.213 -1.512,1.476 A 1908.782,1908.782 0 0 1 373.05,37.5 q -1.75,1.7 -3.45,3.55 -1.7,1.85 -3.6,4.05 -3.942,4.583 -4.27,7.066 A 3.311,3.311 0 0 0 361.7,52.6 q 0,0.472 0.402,0.573 a 1.023,1.023 0 0 0 0.248,0.027 1.4,1.4 0 0 0 0.368,-0.06 q 0.585,-0.165 1.637,-0.775 A 22.679,22.679 0 0 0 364.8,52.1 q 10.722,-7.324 17.91,-14.136 A 82.353,82.353 0 0 0 387,33.6 3.263,3.263 0 0 1 387.441,32.923 1.975,1.975 0 0 1 389,32.2 q 3.608,0.384 4.446,1.416 a 1.061,1.061 0 0 1 0.254,0.684 1.524,1.524 0 0 1 -0.108,0.541 Q 393.406,35.33 392.9,35.9 383.206,46.694 371.527,61.552 A 876.949,876.949 0 0 0 360.5,75.9 231.819,231.819 0 0 1 350.387,88.697 212.706,212.706 0 0 1 349.7,89.5 q -5.5,6.4 -10.3,9.35 a 19.92,19.92 0 0 1 -5.92,2.482 17.908,17.908 0 0 1 -4.08,0.468 8.19,8.19 0 0 1 -2.946,-0.52 7.608,7.608 0 0 1 -1.654,-0.88 4.837,4.837 0 0 1 -1.313,-1.331 Q 322.8,98.006 322.8,96.6 a 13.254,13.254 0 0 1 1.187,-5.338 q 0.84,-1.922 2.276,-3.887 A 30.099,30.099 0 0 1 328.2,85 q 5.4,-6 12.1,-9.75 a 51.418,51.418 0 0 1 4.203,-2.122 q 2.052,-0.912 3.902,-1.469 A 21.026,21.026 0 0 1 351.9,70.9 l 2.1,0.3 a 1.346,1.346 0 0 0 0.555,-0.295 q 1.612,-1.207 6.723,-7.319 a 281.491,281.491 0 0 0 0.072,-0.086 650.392,650.392 0 0 0 1.489,-1.788 q 4.379,-5.28 4.854,-6.128 a 0.439,0.439 0 0 0 0.057,-0.134 q 0.038,-0.339 -0.067,-0.423 A 0.129,0.129 0 0 0 367.6,55 l -1.9,1.5 q -7.5,7 -11.7,7 a 2.667,2.667 0 0 1 -1.305,-0.301 q -1.092,-0.601 -1.329,-2.404 A 8.42,8.42 0 0 1 351.3,59.7 a 9.987,9.987 0 0 1 0.552,-3.022 q 0.496,-1.535 1.439,-3.389 a 46.937,46.937 0 0 1 0.441,-0.835 175.217,175.217 0 0 1 -0.992,0.826 q -1.789,1.482 -3.862,3.137 A 407.569,407.569 0 0 1 344.45,59.9 q -8.292,6.435 -12.465,7.561 A 6.158,6.158 0 0 1 330.4,67.7 q -6.141,0 -7.384,-5.216 A 12.905,12.905 0 0 1 322.7,59.5 q 0,-2.709 1.833,-5.648 A 18,18 0 0 1 325.1,53 Z M 429.9,18.3 435,18.2 a 55.572,55.572 0 0 1 5.01,0.209 33.853,33.853 0 0 1 3.007,0.394 258.005,258.005 0 0 1 2.763,-3.09 q 5.624,-6.171 9.975,-9.934 A 54.293,54.293 0 0 1 458.3,3.7 4.814,4.814 0 0 1 459.811,2.779 q 2.38,-0.975 7.224,-1.069 A 54.813,54.813 0 0 1 468.1,1.7 q 0.855,0.214 1.101,0.631 A 0.714,0.714 0 0 1 469.3,2.7 q 0,0.58 -0.48,1.159 a 3.482,3.482 0 0 1 -0.22,0.241 1114.613,1114.613 0 0 0 -11.595,11.344 683.256,683.256 0 0 0 -6.167,6.2 4.268,4.268 0 0 1 0.009,0.006 q 0.312,0.209 0.494,0.443 a 1.126,1.126 0 0 1 0.259,0.707 0.678,0.678 0 0 1 -0.274,0.53 q -0.435,0.364 -1.558,0.551 a 9.428,9.428 0 0 1 -0.118,0.019 45.183,45.183 0 0 1 -1.069,0.146 199.982,199.982 0 0 1 -0.103,0.013 683.256,683.256 0 0 0 -0.128,0.131 Q 436.57,36.33 432,42.6 a 3.44,3.44 0 0 0 -0.23,0.258 q -0.233,0.286 -0.528,0.734 a 19.214,19.214 0 0 0 -0.292,0.458 15.298,15.298 0 0 0 -0.221,0.367 q -0.317,0.546 -0.4,0.821 A 0.585,0.585 0 0 0 430.3,45.4 l 0.1,0.1 a 0.528,0.528 0 0 0 0.186,-0.07 q 0.813,-0.415 4.698,-3.317 A 375.003,375.003 0 0 0 436.7,41.05 q 5.68,-4.284 8.579,-6.204 a 52.342,52.342 0 0 1 0.221,-0.146 2.212,2.212 0 0 1 0.711,-0.455 q 0.714,-0.302 1.884,-0.399 A 14.677,14.677 0 0 1 449.3,33.8 q 1.57,0.188 2.154,0.771 A 1.129,1.129 0 0 1 451.8,35.4 1.351,1.351 0 0 1 451.745,35.791 1.152,1.152 0 0 1 451.6,36.1 q -7.4,10.5 -8.9,13.4 a 61.406,61.406 0 0 0 -1.02,1.65 q -1.523,2.563 -1.875,3.875 a 2.675,2.675 0 0 0 -0.105,0.675 0.917,0.917 0 0 0 0.017,0.182 q 0.057,0.282 0.314,0.314 A 0.56,0.56 0 0 0 440.1,56.2 q 0.4,0 1.6,-0.6 a 213.903,213.903 0 0 0 13.612,-8.014 q 6.839,-4.354 14.213,-9.65 A 382.618,382.618 0 0 0 474.5,34.3 2.624,2.624 0 0 1 475.028,34.839 1.947,1.947 0 0 1 475.4,36 q 0,0.891 -0.793,1.702 A 4.486,4.486 0 0 1 474.4,37.9 q -0.766,0.689 -2.03,1.847 a 765.697,765.697 0 0 0 -0.82,0.753 q -1.85,1.7 -7.05,6.1 -5.2,4.4 -9.7,8 -11.8,9.5 -17.4,11.2 a 13.746,13.746 0 0 1 -2.617,0.451 16.525,16.525 0 0 1 -1.283,0.049 2.845,2.845 0 0 1 -2.714,-1.608 q -0.631,-1.205 -0.682,-3.315 A 15.645,15.645 0 0 1 430.1,61 q 0,-1.669 1.893,-5.361 A 48.66,48.66 0 0 1 432.3,55.05 q 2.157,-4.068 2.199,-5.974 A 3.399,3.399 0 0 0 434.5,49 0.183,0.183 0 0 0 434.471,48.895 q -0.048,-0.072 -0.178,-0.089 A 0.693,0.693 0 0 0 434.2,48.8 q -0.3,0 -1.5,0.9 a 340.158,340.158 0 0 0 -4.829,3.818 Q 418.238,61.288 415.8,64.7 a 2.222,2.222 0 0 1 -0.483,0.531 1.771,1.771 0 0 1 -1.117,0.369 3.463,3.463 0 0 1 -1.111,-0.166 q -1.037,-0.35 -1.512,-1.437 A 3.946,3.946 0 0 1 411.4,63.5 a 5.09,5.09 0 0 1 0.349,-1.598 q 0.661,-1.877 2.578,-5.121 a 103.46,103.46 0 0 1 2.187,-3.518 197.278,197.278 0 0 1 -3.514,2.837 217.405,217.405 0 0 1 -5.149,4.051 q -7.105,5.404 -11.003,7.179 a 13.363,13.363 0 0 1 -1.448,0.57 12.698,12.698 0 0 1 -1.699,0.342 q -0.88,0.118 -1.875,0.148 a 22.698,22.698 0 0 1 -0.676,0.01 4.901,4.901 0 0 1 -2.803,-0.905 q -0.712,-0.484 -1.382,-1.228 A 10.4,10.4 0 0 1 386.65,65.9 q -1.81,-2.207 -2.022,-5.817 A 16.766,16.766 0 0 1 384.6,59.1 a 9.846,9.846 0 0 1 0.439,-2.719 q 0.754,-2.593 2.802,-6.072 A 62.736,62.736 0 0 1 390.15,46.7 q 5.55,-8.1 15.15,-16.6 a 4.298,4.298 0 0 0 0.372,-0.323 q 0.376,-0.368 0.484,-0.707 A 0.884,0.884 0 0 0 406.2,28.8 q 0,-0.502 -1.468,-0.584 A 11.363,11.363 0 0 0 404.1,28.2 l -6.3,0.2 a 90.715,90.715 0 0 1 -4.191,-0.089 q -8.514,-0.396 -9.415,-2.562 A 1.379,1.379 0 0 1 384.1,25.4 q -2.584,-0.5 -3.014,-1.417 A 0.891,0.891 0 0 1 381,23.6 a 0.585,0.585 0 0 1 0.025,-0.177 q 0.074,-0.235 0.375,-0.273 0.4,-0.05 0.7,-0.1 0.276,-0.046 0.892,-0.134 A 131.901,131.901 0 0 1 383.1,22.9 q 0.612,-0.087 8.59,-1.244 a 125903.54,125903.54 0 0 0 2.46,-0.356 289.567,289.567 0 0 1 10.329,-1.296 Q 410.688,19.331 417.7,18.8 l 6.9,-9.2 a 1.481,1.481 0 0 1 0.632,-0.613 q 0.95,-0.531 3.1,-0.582 A 19.847,19.847 0 0 1 428.8,8.4 13.205,13.205 0 0 1 429.931,8.444 Q 432.4,8.658 432.4,9.9 a 1.082,1.082 0 0 1 -0.044,0.278 q -0.125,0.458 -0.604,1.27 A 15.927,15.927 0 0 1 431.6,11.7 l -2.5,3.5 q -0.395,1.264 -0.54,2.028 A 5.969,5.969 0 0 0 428.5,17.6 q 0,0.7 1.4,0.7 z m -154,21.5 -10.2,0.4 a 213.675,213.675 0 0 1 -4.068,-0.036 q -5.023,-0.096 -7.596,-0.451 A 16.719,16.719 0 0 1 253.05,39.55 Q 249.8,38.9 247.25,38 a 19.159,19.159 0 0 1 -1.765,-0.717 q -0.842,-0.396 -1.524,-0.837 A 9.328,9.328 0 0 1 243.2,35.9 9.236,9.236 0 0 1 240.454,32.683 q -0.894,-1.778 -0.95,-3.987 A 11.715,11.715 0 0 1 239.5,28.4 a 3.493,3.493 0 0 1 0.127,-0.87 q 0.338,-1.296 1.573,-3.33 1.536,-2.529 5.07,-5.915 a 66.989,66.989 0 0 1 0.78,-0.735 q 4.15,-3.85 9.9,-7.3 4.29,-2.574 10.612,-4.675 A 93.131,93.131 0 0 1 272.1,4.2 q 9.4,-2.6 20.4,-3 a 35.93,35.93 0 0 1 5.051,0.371 43.979,43.979 0 0 1 3.199,0.579 50.007,50.007 0 0 1 3.052,0.762 q 2.367,0.676 4.148,1.488 A 13.807,13.807 0 0 1 312.152,7.404 16.582,16.582 0 0 1 313,8.35 q 2.2,2.65 2.2,6.15 a 3.65,3.65 0 0 1 -0.602,1.915 q -0.817,1.328 -2.74,2.738 A 25.315,25.315 0 0 1 309.8,20.5 23.007,23.007 0 0 1 303.693,22.992 Q 299.414,24.1 293.95,24.1 a 108.424,108.424 0 0 1 -2.838,-0.034 q -5.516,-0.145 -6.693,-0.907 A 0.57,0.57 0 0 1 284.1,22.7 a 0.752,0.752 0 0 1 0.305,-0.528 q 1.02,-0.918 5.445,-2.072 5.75,-1.5 11.55,-3.5 a 24.72,24.72 0 0 0 1.971,-0.768 Q 307.2,14.131 307.2,12.1 a 0.817,0.817 0 0 0 -0.446,-0.696 q -0.735,-0.465 -2.681,-0.572 A 23.294,23.294 0 0 0 302.8,10.8 93.74,93.74 0 0 0 277.022,14.207 76.628,76.628 0 0 0 253,25.8 a 21.771,21.771 0 0 0 -1.52,1.23 q -1.446,1.294 -2.014,2.408 a 3.008,3.008 0 0 0 -0.366,1.362 1.656,1.656 0 0 0 1.105,1.346 Q 253.894,34.1 269.9,34.1 a 53.452,53.452 0 0 1 6.325,0.409 q 6.477,0.847 9.564,3.435 a 7.649,7.649 0 0 1 2.811,6.156 11.32,11.32 0 0 1 -1.951,6.2 q -2.282,3.544 -7.237,6.891 A 43.817,43.817 0 0 1 279.1,57.4 69.986,69.986 0 0 1 266.097,64.11 89.176,89.176 0 0 1 256.75,67.2 107.276,107.276 0 0 1 243.534,69.959 83.725,83.725 0 0 1 232.6,70.8 22.798,22.798 0 0 1 226.492,69.926 31.637,31.637 0 0 1 221.4,68 18.126,18.126 0 0 1 218.958,66.622 Q 215.5,64.263 215.5,61.2 a 1.142,1.142 0 0 1 0.677,-1.073 q 0.489,-0.254 1.332,-0.316 a 6.997,6.997 0 0 1 0.191,-0.011 195.496,195.496 0 0 0 4.756,-0.578 q 6.458,-0.873 9.328,-1.831 A 10.517,10.517 0 0 0 232.8,57 q 0.8,-0.2 1.3,-0.2 0.393,0 0.477,0.124 A 0.133,0.133 0 0 1 234.6,57 a 0.467,0.467 0 0 1 -0.068,0.219 q -0.167,0.303 -0.744,0.778 A 11.14,11.14 0 0 1 233.4,58.3 19.039,19.039 0 0 1 231.793,59.078 22.337,22.337 0 0 1 231,59.4 a 51.866,51.866 0 0 0 -0.656,0.239 q -2.121,0.79 -2.144,1.055 a 0.067,0.067 0 0 0 0,0.006 0.15,0.15 0 0 0 0.103,0.121 Q 228.653,61 230.2,61 a 10.557,10.557 0 0 0 0.964,-0.056 q 2.353,-0.225 8.12,-1.345 A 326.464,326.464 0 0 0 240.3,59.4 q 8.1,-1.6 17.35,-4.1 9.25,-2.5 16.35,-6.2 6.783,-3.535 7.086,-6.795 A 3.288,3.288 0 0 0 281.1,42 q 0,-2.146 -4.949,-2.199 A 23.69,23.69 0 0 0 275.9,39.8 Z M 33.2,49.3 a 5.703,5.703 0 0 0 0.044,-0.188 q 0.04,-0.188 0.052,-0.319 A 1.081,1.081 0 0 0 33.3,48.7 0.392,0.392 0 0 0 33.294,48.628 Q 33.271,48.507 33.163,48.5 a 0.21,0.21 0 0 0 -0.013,0 q -0.15,0 -0.6,0.5 a 15.024,15.024 0 0 0 -0.306,0.352 Q 31.881,49.781 31.4,50.4 a 19.076,19.076 0 0 1 -0.38,0.47 q -0.812,0.977 -2.57,2.93 -2.25,2.5 -4.65,4.7 -6.5,6.2 -13,9.5 -1.6,0.8 -3.5,0.8 A 6.142,6.142 0 0 1 1.448,65.416 Q 0,62.698 0,57.8 A 26.516,26.516 0 0 1 1.175,50.327 Q 3.129,43.695 8.331,35.665 A 97.043,97.043 0 0 1 9.3,34.2 85.041,85.041 0 0 1 16.177,25.518 101.089,101.089 0 0 1 19.85,21.65 Q 26,15.5 32.9,10.7 39.8,5.9 47.9,2.95 A 49.211,49.211 0 0 1 57.807,0.424 41.766,41.766 0 0 1 63.7,0 q 1.171,0 3.074,0.731 A 21.318,21.318 0 0 1 67.2,0.9 15.167,15.167 0 0 1 68.55,1.558 Q 70.9,2.866 70.9,4.3 A 1.097,1.097 0 0 1 70.791,4.803 Q 70.524,5.329 69.6,5.4 A 0.917,0.917 0 0 0 69.418,5.417 Q 69.136,5.474 69.104,5.731 A 0.56,0.56 0 0 0 69.1,5.8 0.451,0.451 0 0 0 69.169,6.011 q 0.24,0.425 1.304,1.278 a 21.114,21.114 0 0 0 0.077,0.061 6.495,6.495 0 0 1 0.634,0.569 q 0.653,0.675 0.783,1.313 A 1.582,1.582 0 0 1 72,9.55 q 0,1.05 -0.7,1.85 -5,5.5 -8,9.15 -2.297,2.795 -3.744,4.505 A 144.244,144.244 0 0 1 58.75,26 q -1.332,1.547 -2.959,3.5 a 409.921,409.921 0 0 0 -0.541,0.65 55.053,55.053 0 0 0 -1.526,1.931 Q 52.4,33.831 50.9,36.05 48.5,39.6 46.5,43.1 a 45.72,45.72 0 0 0 -2.758,6.047 q -1.205,3.299 -1.622,6.349 a 23.293,23.293 0 0 0 -0.22,3.154 68.842,68.842 0 0 0 0.731,10.181 60.974,60.974 0 0 0 0.569,3.219 61.937,61.937 0 0 0 0.491,2.207 q 0.839,3.448 1.718,4.895 A 3.454,3.454 0 0 0 45.9,79.8 0.224,0.224 0 0 1 45.772,80.002 q -0.17,0.097 -0.564,0.098 A 3.266,3.266 0 0 1 45.2,80.1 10.261,10.261 0 0 1 37.639,76.856 13.689,13.689 0 0 1 37.3,76.5 22.967,22.967 0 0 1 31.946,65.601 33.071,33.071 0 0 1 31.3,58.9 20.526,20.526 0 0 1 31.545,55.864 Q 31.983,52.952 33.2,49.3 Z M 46.3,26.8 65.5,7.5 A 7.193,7.193 0 0 0 65.755,7.232 Q 66.104,6.845 66.179,6.615 A 0.374,0.374 0 0 0 66.2,6.5 0.249,0.249 0 0 0 66.052,6.262 Q 65.928,6.2 65.7,6.2 a 38.368,38.368 0 0 0 -7.861,2.15 q -3.528,1.358 -7.225,3.447 A 67.055,67.055 0 0 0 49.4,12.5 Q 40.8,17.6 33.8,24.3 A 176.927,176.927 0 0 0 21.642,37.126 162.84,162.84 0 0 0 20.9,38 q -4.517,5.359 -7.481,9.898 A 60.425,60.425 0 0 0 11.75,50.6 55.168,55.168 0 0 0 10.484,52.897 Q 8.5,56.725 8.5,58.6 a 0.406,0.406 0 0 0 0.041,0.189 q 0.087,0.168 0.36,0.202 A 1.209,1.209 0 0 0 9.05,59 1.491,1.491 0 0 0 9.359,58.96 q 0.507,-0.11 1.444,-0.528 A 23.176,23.176 0 0 0 11.2,58.25 6.892,6.892 0 0 0 12.076,57.712 q 2.039,-1.406 7.536,-6.028 A 540.71,540.71 0 0 0 22.25,49.45 250.659,250.659 0 0 0 28.659,43.779 Q 36.263,36.838 46.3,26.8 Z m 389.85,-1.35 a 2527.859,2527.859 0 0 0 1.314,-0.143 380.875,380.875 0 0 0 -8.426,10.481 294.131,294.131 0 0 0 -3.566,4.692 416.303,416.303 0 0 1 -29.072,18.82 17.769,17.769 0 0 1 -0.722,0.254 q -0.688,0.225 -1.17,0.304 a 2.883,2.883 0 0 1 -0.458,0.042 2.669,2.669 0 0 1 -0.548,-0.053 1.883,1.883 0 0 1 -0.702,-0.297 1.479,1.479 0 0 1 -0.233,-0.2 0.926,0.926 0 0 1 -0.267,-0.65 4.665,4.665 0 0 1 0.19,-1.229 q 0.691,-2.5 3.903,-6.911 a 82.49,82.49 0 0 1 2.107,-2.76 150.849,150.849 0 0 1 0.097,-0.122 138.209,138.209 0 0 1 12.953,-14.178 133.999,133.999 0 0 1 0.777,-0.732 q 4.85,-4.529 6.997,-5.563 a 2.71,2.71 0 0 1 0.976,-0.305 71.775,71.775 0 0 0 1.289,-0.073 q 4.565,-0.295 14.561,-1.377 z m -88.65,54.25 4.2,-5.2 q 0.585,-0.78 0.6,-0.99 a 0.149,0.149 0 0 0 0,-0.01 0.183,0.183 0 0 0 -0.029,-0.105 q -0.048,-0.072 -0.178,-0.089 A 0.693,0.693 0 0 0 352,73.3 q -3.2,0 -9.15,4.9 -5.95,4.9 -10.6,10.7 -4.65,5.8 -4.65,8.2 a 0.315,0.315 0 0 0 0.028,0.138 q 0.064,0.133 0.275,0.157 A 0.875,0.875 0 0 0 328,97.4 a 10.875,10.875 0 0 0 2.094,-0.949 q 2.052,-1.171 4.69,-3.476 A 65.93,65.93 0 0 0 337.4,90.55 q 5.71,-5.565 9.828,-10.521 A 98.234,98.234 0 0 0 347.5,79.7 Z M 77.1,41.4 82.7,36.5 q 0.32,-0.32 0.384,-0.48 A 0.192,0.192 0 0 0 83.1,35.95 q 0,-0.133 -0.236,-0.148 A 1.01,1.01 0 0 0 82.8,35.8 9.078,9.078 0 0 0 80.2,36.225 q -3.106,0.934 -7.3,3.925 a 72.405,72.405 0 0 0 -6.901,5.56 59.674,59.674 0 0 0 -3.649,3.64 59.428,59.428 0 0 0 -1.512,1.708 q -2.196,2.587 -2.751,4.011 A 2.355,2.355 0 0 0 57.9,55.9 q 0,0.2 0.2,0.2 1.2,0 7.35,-4.9 A 280.341,280.341 0 0 0 75.715,42.625 254.095,254.095 0 0 0 77.1,41.4 Z m 59.4,18.7 a 6.467,6.467 0 0 0 2.233,-0.441 q 1.936,-0.716 4.287,-2.59 a 32.301,32.301 0 0 0 1.38,-1.169 59.143,59.143 0 0 0 1.604,-1.484 q 2.342,-2.254 3.024,-3.55 A 2.32,2.32 0 0 0 149.3,50.1 5.848,5.848 0 0 1 148.555,49.337 q -0.673,-0.812 -1.391,-2.106 A 25.434,25.434 0 0 1 146.75,46.45 q -1.224,-2.402 -1.42,-2.627 a 0.058,0.058 0 0 0 -0.03,-0.023 33.72,33.72 0 0 0 -5.197,6.229 37.371,37.371 0 0 0 -0.303,0.471 70.552,70.552 0 0 0 -1.481,2.609 q -2.002,3.725 -2.276,5.632 A 3.949,3.949 0 0 0 136,59.3 q 0,0.544 0.231,0.718 A 0.434,0.434 0 0 0 136.5,60.1 Z m 17.612,-21.559 a 53.894,53.894 0 0 0 -0.162,0.159 36.009,36.009 0 0 0 -1.071,1.096 Q 150.8,42.025 150.8,43 a 0.579,0.579 0 0 0 0.031,0.167 q 0.081,0.261 0.378,0.737 a 11.404,11.404 0 0 0 0.191,0.296 7.31,7.31 0 0 0 0.214,0.306 q 0.327,0.439 0.546,0.554 a 0.307,0.307 0 0 0 0.14,0.04 1.905,1.905 0 0 0 1.049,-0.361 q 1.166,-0.774 2.514,-3.206 A 26.157,26.157 0 0 0 156.15,41 a 119.833,119.833 0 0 0 0.504,-0.971 q 1.337,-2.608 1.588,-3.473 A 1.197,1.197 0 0 0 158.3,36.25 q 0,-0.473 -0.106,-0.602 A 0.119,0.119 0 0 0 158.1,35.6 q -0.974,0 -3.988,2.941 z"
       vector-effect="non-scaling-stroke"
       id="path824" />
  </g>
</svg>
