<?xml version="1.0" encoding="UTF-8" standalone="no"?>
<svg
   width="158.74567"
   height="82.745934"
   viewBox="0 0 158.74567 82.745935"
   version="1.1"
   id="svg1001"
   sodipodi:docname="icon.svg"
   inkscape:version="1.1.1 (c3084ef, 2021-09-22)"
   xmlns:inkscape="http://www.inkscape.org/namespaces/inkscape"
   xmlns:sodipodi="http://sodipodi.sourceforge.net/DTD/sodipodi-0.dtd"
   xmlns="http://www.w3.org/2000/svg"
   xmlns:svg="http://www.w3.org/2000/svg">
  <defs
     id="defs1005" />
  <sodipodi:namedview
     id="namedview1003"
     pagecolor="#ffffff"
     bordercolor="#666666"
     borderopacity="1.0"
     inkscape:pageshadow="2"
     inkscape:pageopacity="0.0"
     inkscape:pagecheckerboard="0"
     showgrid="false"
     inkscape:zoom="2.3972054"
     inkscape:cx="81.970449"
     inkscape:cy="70.081606"
     inkscape:window-width="1692"
     inkscape:window-height="970"
     inkscape:window-x="61"
     inkscape:window-y="49"
     inkscape:window-maximized="0"
     inkscape:current-layer="svg1001"
     height="158px"
     width="158.74567px" />
  <g
     id="svgGroup"
     stroke-linecap="round"
     fill-rule="evenodd"
     font-size="12px"
     stroke="#000"
     stroke-width="0.7mm"
     fill="#000"
     style="fill:#000000;stroke:#000000;stroke-width:0.7mm"
     transform="translate(1.3228346,1.3228346)">
    <path
       d="m 116.8,39.8 -10.2,0.4 a 213.675,213.675 0 0 1 -4.068,-0.036 Q 97.509,40.068 94.936,39.713 A 16.719,16.719 0 0 1 93.95,39.55 Q 90.7,38.9 88.15,38 A 19.159,19.159 0 0 1 86.385,37.283 Q 85.543,36.887 84.861,36.446 A 9.328,9.328 0 0 1 84.1,35.9 9.236,9.236 0 0 1 81.354,32.683 Q 80.46,30.905 80.404,28.696 A 11.715,11.715 0 0 1 80.4,28.4 3.493,3.493 0 0 1 80.527,27.53 q 0.338,-1.296 1.573,-3.33 1.536,-2.529 5.07,-5.915 a 66.989,66.989 0 0 1 0.78,-0.735 q 4.15,-3.85 9.9,-7.3 4.29,-2.574 10.612,-4.675 A 93.131,93.131 0 0 1 113,4.2 q 9.4,-2.6 20.4,-3 a 35.93,35.93 0 0 1 5.051,0.371 43.979,43.979 0 0 1 3.199,0.579 50.007,50.007 0 0 1 3.052,0.762 q 2.367,0.676 4.148,1.488 a 13.807,13.807 0 0 1 4.202,3.004 16.582,16.582 0 0 1 0.848,0.946 q 2.2,2.65 2.2,6.15 a 3.65,3.65 0 0 1 -0.602,1.915 q -0.817,1.328 -2.74,2.738 A 25.315,25.315 0 0 1 150.7,20.5 23.007,23.007 0 0 1 144.593,22.992 Q 140.314,24.1 134.85,24.1 a 108.424,108.424 0 0 1 -2.838,-0.034 q -5.516,-0.145 -6.693,-0.907 A 0.57,0.57 0 0 1 125,22.7 a 0.752,0.752 0 0 1 0.305,-0.528 q 1.02,-0.918 5.445,-2.072 5.75,-1.5 11.55,-3.5 a 24.72,24.72 0 0 0 1.971,-0.768 Q 148.1,14.131 148.1,12.1 a 0.817,0.817 0 0 0 -0.446,-0.696 q -0.735,-0.465 -2.681,-0.572 A 23.294,23.294 0 0 0 143.7,10.8 93.74,93.74 0 0 0 117.922,14.207 76.628,76.628 0 0 0 93.9,25.8 21.771,21.771 0 0 0 92.38,27.03 q -1.446,1.294 -2.014,2.408 A 3.008,3.008 0 0 0 90,30.8 1.656,1.656 0 0 0 91.105,32.146 Q 94.794,34.1 110.8,34.1 a 53.452,53.452 0 0 1 6.325,0.409 q 6.477,0.847 9.564,3.435 a 7.649,7.649 0 0 1 2.811,6.156 11.32,11.32 0 0 1 -1.951,6.2 q -2.282,3.544 -7.237,6.891 A 43.817,43.817 0 0 1 120,57.4 69.986,69.986 0 0 1 106.997,64.11 89.176,89.176 0 0 1 97.65,67.2 107.276,107.276 0 0 1 84.434,69.959 83.725,83.725 0 0 1 73.5,70.8 22.798,22.798 0 0 1 67.392,69.926 31.637,31.637 0 0 1 62.3,68 18.126,18.126 0 0 1 59.858,66.622 Q 56.4,64.263 56.4,61.2 a 1.142,1.142 0 0 1 0.677,-1.073 q 0.489,-0.254 1.332,-0.316 A 6.997,6.997 0 0 1 58.6,59.8 195.496,195.496 0 0 0 63.356,59.222 q 6.458,-0.873 9.328,-1.831 A 10.517,10.517 0 0 0 73.7,57 q 0.8,-0.2 1.3,-0.2 0.393,0 0.477,0.124 A 0.133,0.133 0 0 1 75.5,57 0.467,0.467 0 0 1 75.432,57.219 q -0.167,0.303 -0.744,0.778 A 11.14,11.14 0 0 1 74.3,58.3 19.039,19.039 0 0 1 72.693,59.078 22.337,22.337 0 0 1 71.9,59.4 51.866,51.866 0 0 0 71.244,59.639 q -2.121,0.79 -2.144,1.055 a 0.067,0.067 0 0 0 0,0.006 0.15,0.15 0 0 0 0.103,0.121 Q 69.553,61 71.1,61 a 10.557,10.557 0 0 0 0.964,-0.056 q 2.353,-0.225 8.12,-1.345 A 326.464,326.464 0 0 0 81.2,59.4 q 8.1,-1.6 17.35,-4.1 9.25,-2.5 16.35,-6.2 6.783,-3.535 7.086,-6.795 A 3.288,3.288 0 0 0 122,42 q 0,-2.146 -4.949,-2.199 A 23.69,23.69 0 0 0 116.8,39.8 Z m -83.6,9.5 a 5.703,5.703 0 0 0 0.044,-0.188 q 0.04,-0.188 0.052,-0.319 A 1.081,1.081 0 0 0 33.3,48.7 0.392,0.392 0 0 0 33.294,48.628 Q 33.271,48.507 33.163,48.5 a 0.21,0.21 0 0 0 -0.013,0 q -0.15,0 -0.6,0.5 a 15.024,15.024 0 0 0 -0.306,0.352 Q 31.881,49.781 31.4,50.4 a 19.076,19.076 0 0 1 -0.38,0.47 q -0.812,0.977 -2.57,2.93 -2.25,2.5 -4.65,4.7 -6.5,6.2 -13,9.5 -1.6,0.8 -3.5,0.8 A 6.142,6.142 0 0 1 1.448,65.416 Q 0,62.698 0,57.8 A 26.516,26.516 0 0 1 1.175,50.327 Q 3.129,43.695 8.331,35.665 A 97.043,97.043 0 0 1 9.3,34.2 85.041,85.041 0 0 1 16.177,25.518 101.089,101.089 0 0 1 19.85,21.65 Q 26,15.5 32.9,10.7 39.8,5.9 47.9,2.95 A 49.211,49.211 0 0 1 57.807,0.424 41.766,41.766 0 0 1 63.7,0 q 1.171,0 3.074,0.731 A 21.318,21.318 0 0 1 67.2,0.9 15.167,15.167 0 0 1 68.55,1.558 Q 70.9,2.866 70.9,4.3 A 1.097,1.097 0 0 1 70.791,4.803 Q 70.524,5.329 69.6,5.4 A 0.917,0.917 0 0 0 69.418,5.417 Q 69.136,5.474 69.104,5.731 A 0.56,0.56 0 0 0 69.1,5.8 0.451,0.451 0 0 0 69.169,6.011 q 0.24,0.425 1.304,1.278 a 21.114,21.114 0 0 0 0.077,0.061 6.495,6.495 0 0 1 0.634,0.569 q 0.653,0.675 0.783,1.313 A 1.582,1.582 0 0 1 72,9.55 q 0,1.05 -0.7,1.85 -5,5.5 -8,9.15 -2.297,2.795 -3.744,4.505 A 144.244,144.244 0 0 1 58.75,26 q -1.332,1.547 -2.959,3.5 a 409.921,409.921 0 0 0 -0.541,0.65 55.053,55.053 0 0 0 -1.526,1.931 Q 52.4,33.831 50.9,36.05 48.5,39.6 46.5,43.1 a 45.72,45.72 0 0 0 -2.758,6.047 q -1.205,3.299 -1.622,6.349 a 23.293,23.293 0 0 0 -0.22,3.154 68.842,68.842 0 0 0 0.731,10.181 60.974,60.974 0 0 0 0.569,3.219 61.937,61.937 0 0 0 0.491,2.207 q 0.839,3.448 1.718,4.895 A 3.454,3.454 0 0 0 45.9,79.8 0.224,0.224 0 0 1 45.772,80.002 q -0.17,0.097 -0.564,0.098 A 3.266,3.266 0 0 1 45.2,80.1 10.261,10.261 0 0 1 37.639,76.856 13.689,13.689 0 0 1 37.3,76.5 22.967,22.967 0 0 1 31.946,65.601 33.071,33.071 0 0 1 31.3,58.9 20.526,20.526 0 0 1 31.545,55.864 Q 31.983,52.952 33.2,49.3 Z M 46.3,26.8 65.5,7.5 A 7.193,7.193 0 0 0 65.755,7.232 Q 66.104,6.845 66.179,6.615 A 0.374,0.374 0 0 0 66.2,6.5 0.249,0.249 0 0 0 66.052,6.262 Q 65.928,6.2 65.7,6.2 a 38.368,38.368 0 0 0 -7.861,2.15 q -3.528,1.358 -7.225,3.447 A 67.055,67.055 0 0 0 49.4,12.5 Q 40.8,17.6 33.8,24.3 A 176.927,176.927 0 0 0 21.642,37.126 162.84,162.84 0 0 0 20.9,38 q -4.517,5.359 -7.481,9.898 A 60.425,60.425 0 0 0 11.75,50.6 55.168,55.168 0 0 0 10.484,52.897 Q 8.5,56.725 8.5,58.6 a 0.406,0.406 0 0 0 0.041,0.189 q 0.087,0.168 0.36,0.202 A 1.209,1.209 0 0 0 9.05,59 1.491,1.491 0 0 0 9.359,58.96 q 0.507,-0.11 1.444,-0.528 A 23.176,23.176 0 0 0 11.2,58.25 6.892,6.892 0 0 0 12.076,57.712 q 2.039,-1.406 7.536,-6.028 A 540.71,540.71 0 0 0 22.25,49.45 250.659,250.659 0 0 0 28.659,43.779 Q 36.263,36.838 46.3,26.8 Z"
       id="path998" />
  </g>
</svg>
